<?xml version="1.0" encoding="UTF-8" standalone="no"?><svg xmlns="http://www.w3.org/2000/svg" xmlns:xlink="http://www.w3.org/1999/xlink" contentScriptType="text/ecmascript" zoomAndPan="magnify" contentStyleType="text/css" stroke="#000000" stroke-linecap="square" version="1" width="556" stroke-miterlimit="10" fill="#000000" preserveAspectRatio="xMidYMid meet" viewBox="0 0 556.2 124.2" height="124"><g><g fill="#5e17eb" stroke="#5e17eb"><path d="M521.44.5H34.72l-7.85.9-7.2 2.57-6.35 4.04-5.3 5.3-4.04 6.35-2.57 7.2-.9 7.85v88.96H555.68V34.72l-.9-7.85-2.57-7.2-4.04-6.35-5.3-5.3-6.36-4.04-7.21-2.57-7.85-.9Z" stroke="none"/></g><g fill="#ffffff" fill-opacity="0" stroke-opacity="0" stroke="#ffffff"><path fill="none" d="M34.47.25H521.19l7.85.9 7.21 2.57 6.36 4.04 5.3 5.3 4.04 6.35 2.57 7.2.9 7.85v88.96H.25V34.47l.9-7.85 2.57-7.2 4.04-6.35 5.3-5.3 6.35-4.04 7.2-2.57 7.85-.9Z" stroke="none"/></g><g fill="#5e17eb" stroke="#5e17eb"><path fill="none" d="M34.47.25H521.19l7.85.9 7.21 2.57 6.36 4.04 5.3 5.3 4.04 6.35 2.57 7.2.9 7.85v88.96H.25V34.47l.9-7.85 2.57-7.2 4.04-6.35 5.3-5.3 6.35-4.04 7.2-2.57 7.85-.9Z"/></g></g></svg>