<?xml version="1.0" encoding="UTF-8" standalone="no"?><svg xmlns="http://www.w3.org/2000/svg" xmlns:xlink="http://www.w3.org/1999/xlink" contentScriptType="text/ecmascript" zoomAndPan="magnify" contentStyleType="text/css" stroke="#000000" stroke-linecap="square" version="1" width="556" stroke-miterlimit="10" fill="#000000" preserveAspectRatio="xMidYMid meet" viewBox="0 0 556.2 192.9" height="193"><g><g fill="#ffffff" fill-opacity="0.15" stroke-opacity="0.15" stroke="none"><path d="M555.68.5H.5V158.16l.9 7.85 2.58 7.21 4.04 6.36 5.3 5.3 6.36 4.04 7.21 2.57 7.85.9H521.46l7.85-.9 7.2-2.57 6.35-4.04 5.3-5.3 4.04-6.36 2.57-7.21.9-7.85V.5Z"/><path fill="none" d="M.25.25H555.43V157.91l-.9 7.85-2.57 7.21-4.04 6.36-5.3 5.3-6.35 4.04-7.2 2.57-7.85.9H34.48l-7.85-.9-7.21-2.57-6.36-4.04-5.3-5.3-4.04-6.36-2.58-7.21-.9-7.85V.25Z"/></g><g fill="#ffffff" stroke="#ffffff"><path fill="none" d="M.25.25H555.43V157.91l-.9 7.85-2.57 7.21-4.04 6.36-5.3 5.3-6.35 4.04-7.2 2.57-7.85.9H34.48l-7.85-.9-7.21-2.57-6.36-4.04-5.3-5.3-4.04-6.36-2.58-7.21-.9-7.85V.25Z"/></g></g></svg>