<?xml version="1.0" encoding="UTF-8" standalone="no"?><svg xmlns="http://www.w3.org/2000/svg" xmlns:xlink="http://www.w3.org/1999/xlink" contentScriptType="text/ecmascript" fill="#000000" width="374" zoomAndPan="magnify" contentStyleType="text/css" viewBox="69.0 122.2 374.0 267.7" height="267.7" preserveAspectRatio="xMidYMid meet" version="1"><g id="change1_1"><path fill="#100f0d" d="M 108.679688 377.835938 C 103.234375 377.835938 98.039062 376.269531 93.585938 373.363281 L 200.203125 264.121094 L 234.5625 299.070312 C 240.21875 304.824219 247.773438 307.992188 255.839844 307.996094 C 255.84375 307.996094 255.84375 307.996094 255.847656 307.996094 C 263.90625 307.996094 271.460938 304.832031 277.113281 299.085938 L 311.5625 264.113281 L 418.398438 373.375 C 413.953125 376.273438 408.761719 377.835938 403.320312 377.835938 Z M 85.171875 364.800781 C 82.449219 360.449219 80.980469 355.410156 80.980469 350.144531 L 80.980469 161.855469 C 80.980469 156.558594 82.457031 151.492188 85.210938 147.132812 L 191.792969 255.558594 Z M 108.679688 134.164062 L 403.320312 134.164062 C 408.738281 134.164062 413.910156 135.707031 418.339844 138.582031 L 307.304688 251.335938 L 268.5625 290.664062 C 265.183594 294.101562 260.664062 295.996094 255.847656 295.996094 C 255.84375 295.996094 255.84375 295.996094 255.84375 295.996094 C 251.019531 295.996094 246.5 294.097656 243.121094 290.660156 L 204.46875 251.339844 L 93.644531 138.59375 C 98.082031 135.710938 103.257812 134.164062 108.679688 134.164062 Z M 319.984375 255.558594 L 426.777344 147.113281 C 429.539062 151.484375 431.019531 156.554688 431.019531 161.855469 L 431.019531 350.144531 C 431.019531 355.414062 429.550781 360.457031 426.8125 364.816406 Z M 431.480469 133.894531 C 431.480469 133.894531 431.480469 133.890625 431.480469 133.890625 C 431.476562 133.890625 431.476562 133.886719 431.472656 133.886719 C 431.472656 133.882812 431.472656 133.882812 431.46875 133.878906 C 431.46875 133.878906 431.464844 133.875 431.460938 133.871094 C 423.964844 126.324219 413.972656 122.164062 403.320312 122.164062 L 108.679688 122.164062 C 98.019531 122.164062 88.015625 126.332031 80.511719 133.898438 C 80.507812 133.902344 80.503906 133.90625 80.5 133.910156 C 73.074219 141.371094 68.980469 151.296875 68.980469 161.855469 L 68.980469 350.144531 C 68.980469 360.683594 73.0625 370.597656 80.46875 378.066406 C 80.488281 378.085938 80.507812 378.105469 80.527344 378.125 C 80.53125 378.128906 80.535156 378.132812 80.539062 378.140625 C 80.542969 378.144531 80.550781 378.148438 80.554688 378.152344 C 88.0625 385.683594 98.042969 389.835938 108.679688 389.835938 L 403.320312 389.835938 C 413.964844 389.835938 423.949219 385.683594 431.445312 378.152344 C 431.445312 378.148438 431.449219 378.148438 431.453125 378.144531 C 431.457031 378.144531 431.457031 378.140625 431.460938 378.136719 C 431.480469 378.117188 431.5 378.101562 431.519531 378.082031 C 438.9375 370.605469 443.019531 360.683594 443.019531 350.144531 L 443.019531 161.855469 C 443.019531 151.292969 438.921875 141.363281 431.480469 133.894531"/></g></svg>