<?xml version="1.0" encoding="UTF-8" standalone="no"?><svg xmlns="http://www.w3.org/2000/svg" xmlns:xlink="http://www.w3.org/1999/xlink" contentScriptType="text/ecmascript" zoomAndPan="magnify" contentStyleType="text/css" stroke="#000000" stroke-linecap="square" version="1" width="121" stroke-miterlimit="10" fill="#000000" preserveAspectRatio="xMidYMid meet" viewBox="0 0 120.7 120.7" height="121"><g><g fill="#ffffff" stroke="#ffffff"><path d="M60.32 0L52.76.47 45.47 1.84 38.52 4.06 31.97 7.07l-6.11 3.74-5.6 4.42-5.04 5.04-4.42 5.6-3.74 6.11-3.01 6.56-2.22 6.95L.47 52.75 0 60.32.47 67.89l1.37 7.29 2.22 6.95 3.01 6.56 3.74 6.11 4.42 5.6 5.04 5.04 5.6 4.42 6.11 3.74 6.55 3.01 6.95 2.22 7.28 1.37 7.56.47 7.57-.47 7.29-1.37 6.95-2.22 6.56-3.01 6.11-3.74 5.6-4.42 5.04-5.04 4.42-5.6 3.74-6.11 3.01-6.56 2.22-6.95 1.37-7.29.47-7.57-.47-7.57-1.37-7.29-2.22-6.95-3.01-6.56-3.74-6.11-4.42-5.6-5.04-5.04-5.6-4.42-6.11-3.74-6.56-3.01-6.95-2.22L67.89.47 60.32 0Z" stroke="none"/></g></g></svg>