<?xml version="1.0" encoding="UTF-8" standalone="no"?><svg xmlns="http://www.w3.org/2000/svg" xmlns:xlink="http://www.w3.org/1999/xlink" contentScriptType="text/ecmascript" zoomAndPan="magnify" contentStyleType="text/css" stroke="#000000" stroke-linecap="square" version="1" width="103" stroke-miterlimit="10" fill="#000000" preserveAspectRatio="xMidYMid meet" viewBox="0 0 102.5 102.5" height="103"><g><g fill="#ffffff" stroke="#ffffff"><path d="M51.23 0L43.66.56 36.43 2.17l-6.8 2.59-6.3 3.49-5.71 4.31-5.05 5.05-4.31 5.71-3.49 6.3-2.59 6.8L.56 43.65 0 51.22.56 58.79l1.61 7.23 2.59 6.8 3.49 6.3 4.31 5.72 5.05 5.05 5.71 4.31 6.3 3.49 6.8 2.59 7.22 1.61 7.57.56 7.57-.56 7.23-1.61 6.8-2.59 6.3-3.49 5.71-4.31 5.05-5.05 4.31-5.72 3.49-6.3 2.59-6.8 1.61-7.23.56-7.57-.56-7.57-1.61-7.22-2.59-6.8-3.49-6.3-4.31-5.71-5.05-5.05-5.71-4.31-6.3-3.49-6.8-2.59L58.8.56 51.23 0Z" stroke="none"/></g></g></svg>