<?xml version="1.0" encoding="UTF-8" standalone="no"?><svg xmlns="http://www.w3.org/2000/svg" xmlns:xlink="http://www.w3.org/1999/xlink" contentScriptType="text/ecmascript" fill="#000000" width="1500" zoomAndPan="magnify" contentStyleType="text/css" viewBox="45.0 45.0 1410.0 1410.0" height="1500" data-name="Layer 1" preserveAspectRatio="xMidYMid meet" version="1"><g id="change1_1"><path d="M507.6,581.64H407.9a20,20,0,0,0-20,20V1150a20,20,0,0,0,20,20h99.7a20,20,0,0,0,20-20V601.64A20,20,0,0,0,507.6,581.64ZM487.6,1130H427.9V621.64h59.7Z"/></g><g id="change1_2"><path d="M1084.72,620.44c-49.86-44.6-108.28-51.26-138.67-51.26-45.38,0-88.63,12.13-125.09,35.08a218.33,218.33,0,0,0-41.77,34.22l-2.39-38.09a20,20,0,0,0-20-18.75H668.47a20,20,0,0,0-19.94,21.5C651.67,645,653,688.92,653,750.06V1150a20,20,0,0,0,20,20h99.71a20,20,0,0,0,20-20V820.3c0-15.4,2-29.84,5.59-39.61.12-.33.23-.65.33-1,13.38-43.72,54-87.83,114.56-87.83,37.46,0,64.33,12.79,82.16,39.09,16.18,23.88,24.74,59.47,24.74,102.93V1150a20,20,0,0,0,20,20h99.7a20,20,0,0,0,20-20V822.57c0-46.76-7.07-88.22-21-123.22C1126.21,667.84,1108,641.29,1084.72,620.44ZM1119.79,1130h-59.7V833.9c0-52.23-10.64-94.41-31.63-125.37a123.83,123.83,0,0,0-46.71-41.59c-19.66-10-42.73-15.06-68.56-15.06a154.41,154.41,0,0,0-97.64,34.58,169,169,0,0,0-55,81.06c-5,14.13-7.82,32.85-7.82,52.78V1130H693V750.06c0-51.91-1-91.73-3.14-128.42h48.19l4.5,71.89a20,20,0,0,0,20,18.75h2.26a20,20,0,0,0,17.74-10.75c22.22-42.6,78.39-92.35,163.54-92.35,40.76,0,173.74,15.39,173.74,213.39Z"/></g><g id="change1_3"><path d="M563.78,429.44,506.23,398,474.75,340.4a20,20,0,0,0-35.1,0L408.17,398l-57.56,31.48a20,20,0,0,0,0,35.1L408.17,496l31.48,57.55a20,20,0,0,0,35.1,0L506.23,496l57.55-31.48a20,20,0,0,0,0-35.1Z"/></g><g id="change1_4"><path d="M1271.44,45H228.56C127.34,45,45,127.35,45,228.56V1271.44C45,1372.65,127.34,1455,228.56,1455H1271.44c101.22,0,183.56-82.35,183.56-183.56V228.56C1455,127.35,1372.66,45,1271.44,45ZM1415,1271.44c0,79.16-64.4,143.56-143.56,143.56H228.56C149.4,1415,85,1350.6,85,1271.44V228.56C85,149.4,149.4,85,228.56,85H1271.44C1350.6,85,1415,149.4,1415,228.56Z"/></g><g id="change1_5"><path d="M1262.55,133.89H237.45A103.68,103.68,0,0,0,133.89,237.45v1025.1a103.68,103.68,0,0,0,103.56,103.56h1025.1a103.68,103.68,0,0,0,103.56-103.56V237.45A103.68,103.68,0,0,0,1262.55,133.89Zm63.56,1128.66a63.63,63.63,0,0,1-63.56,63.56H237.45a63.63,63.63,0,0,1-63.56-63.56V237.45a63.63,63.63,0,0,1,63.56-63.56h1025.1a63.63,63.63,0,0,1,63.56,63.56Z"/></g><g id="change1_6"><path d="M1185.5 242.23L1216 298 1271.77 328.5 1216 359 1185.5 414.77 1155 359 1099.23 328.5 1155 298 1185.5 242.23z"/></g></svg>