<?xml version="1.0" encoding="UTF-8" standalone="no"?><svg xmlns="http://www.w3.org/2000/svg" xmlns:xlink="http://www.w3.org/1999/xlink" contentScriptType="text/ecmascript" fill="#000000" width="537" zoomAndPan="magnify" contentStyleType="text/css" viewBox="-43.5 -0.0 536.7 503.8" height="504" preserveAspectRatio="xMidYMid meet" version="1"><g id="change1_1"><path d="M489.46,393.77c-5.45-5.01-9.77-11.51-15.18-16.16c-5.28-4.48-7.9-11.23-13.01-15.92c-14.57-13.72-30.1-26.02-46.36-37.64 c-10.16-10.31-21.58-19.01-34.35-25.84c-8.07-4.12-19.44-16.2-28.82-11.1c-22.8,15.53-40.36,37.74-50.45,63.24 c-0.77,4.97,2.97,9.2,4.9,14.31c3.83-0.46,9.98-6.45,11.35-9.86c1.68-7.38,4.75-14.27,8.82-20.57c0.19,1.24,0.78,1.95,2.08,1.87 c7,2.62,14.33,6.84,19.06,12.89c11.04,9.8,24.26,17.2,35.65,26.65c19.98,24.31,46.65,41.91,69.22,63.79 c-9.54,12.54-23.16,21.32-36.03,29.7c-28.1,17.16-62.86,18.63-94.78,13.98c-69.65-12.79-122.79-64.63-176.06-107.54 C53.68,299.95-43.49,152.47,48.89,42.81c0.27,0.87,0.84,1.35,1.92,1.3c4.66,0.94,8.11,4.83,12.3,6.98 c2.57,1.62,4.61,3.82,6.31,6.45c3.09,4.19,8.03,6.4,11.87,9.77c6.67,7.17,15.36,11.99,22.06,19.08c5.25,8.1,11.31,15.49,18.4,22.04 c11.61,15.18,26.67,27.25,38.82,42.02c0,0,6.83,7.55,6.83,7.55c0.6,0.74,2.44,0.7,3.63,0.54c-7.11,5.27-14.84,9.85-22.97,13.25 c-6.48,2.76-13.69,2.99-18.24,9.72c-9.57,17.11,26.35,53.33,36.23,67.63c25.12,30.69,54.38,57.79,84.08,83.95 c14.76,12.13,28.85,30.88,49.54,31.31c1.61-0.14,4.01-2.72,0.76-2.07c-0.44-1.2,1.65-2.27,1.58-3.25 c-3.98-3.92-6.14-9.86-11.94-11.71c-11.94-5.93-21.91-15.37-32.79-23.24c-14.88-12.06-27.41-26.87-42.31-38.98 c-12.77-11.97-22.91-26.43-34.67-39.37c-13.96-17.4-31.51-34.15-37.64-56.13c30.13-9.34,56.94-31.03,72.72-58.52 c3.77-5.88-1.63-11.67-4.94-16.41C181.3,74.6,146.51,39.1,106.56,9.75C99.3,5.53,91.5,6.43,82.63,5.06 c8.28,18.05,28.13,26.19,42.47,38.8c28.11,25.08,56.84,50.62,77.06,82.79c-5.51,9.31-13.6,16.67-21.41,24 c-0.01-5.9-6.94-7.33-10-11.43c-7.03-8.53-16.18-14.67-23.85-22.55c-6.79-5.92-10.31-14.33-16.58-20.68 c-14.25-16.26-30.42-30.78-48.48-42.62c-3.66-3.86-7.21-7.81-11.45-11.1c-4.01-3.42-6.74-9.04-12.41-9.83 c8.15-10.75,20-19.51,24.5-32.44c-7.13,0.65-12.25,5.29-18.54,8.03C54.38,12,49.17,21.63,42.37,29.06 C7.76,69.61-7.16,126.29,3.27,178.61c6.88,39.92,22.94,77.73,46.32,110.73c25.86,36.5,54.61,71.28,88.86,100.2 c55.92,45.31,113.64,95.77,187.04,108.01c36.74,6.22,76.71,1.04,107.48-21c25.4-16.09,49.02-36.97,49.83-69.21 c-6.78,5.85-11.9,13.78-18.85,19.98c-7.06-3.57-12.34-9.1-18.29-14.07c-5.64-3.71-11.42-7.28-16.52-11.76 c-5.18-3.86-9.27-8.73-13.14-13.83c-11.11-10.76-22.88-20.82-35.24-30.1c-8.93-6.69-19.78-10.77-27.13-19.39 c-7.27-4.09-11.37-14.27-20.52-14.06c5.73-9.88,14.12-18.03,23.78-24.1c30.79,19.69,60.55,41.01,89.29,63.66 c7.78,5.98,12.81,14.62,19.64,21.58c6.83,8.84,11,19.99,22.98,22.7C491.73,405.32,493.17,395.99,489.46,393.77z M142.62,188.77 c0.02-0.7,0.19-0.17,0.01,0.21C142.62,188.91,142.62,188.83,142.62,188.77z"/><path d="M23.49,157.26c-1.28,23.3,8.06,45.73,21.38,64.52c1.42,1.98,4.46,5.86,6.06,7.71c3.51,6.37,9.3,3.48,15.47,2.09 c1.42-2.05,0.83-4.59,0.71-6.66c0.25-5.03-5.81-5.7-8.12-9.5c-7.1-9.94-16.24-19.15-18.59-31.62c-1.25-15.74-3.14-31.49-2.96-47.36 c0.1-8.18-2.05-17.12,1.48-24.8c1.69-2.82,2.56-6,4.02-8.91c4.63-6.35,10.15-12.57,3.19-20.3c-1.74-0.8-9.83-0.62-8.95,2.34 c-0.55,4.62-3.67,8.65-4.7,13.23c-0.92,4.45-4.94,7.79-5.79,12.3c-1.06,6.33-1.7,12.74-2.57,19.09 C24.35,138.78,26.03,148.05,23.49,157.26z"/></g></svg>